<svg xmlns="http://www.w3.org/2000/svg" fill="#F57082" width="20" height="20" viewBox="0 0 20 20" aria-labelledby="icon-svg-title-LocationFill icon-svg-desc-LocationFill" role="img" class="rbbb40-0 kIxlGM"><linearGradient id="ckam74m2j005c3b6nrl4p9mbh" x1="0" x2="100%" y1="0" y2="0"><stop offset="0" stop-color="#F57082"></stop><stop offset="100%" stop-color="#F57082"></stop></linearGradient><title id="icon-svg-title-LocationFill">Location Fill icon</title><desc id="icon-svg-desc-LocationFill">It is an icon with title Location Fill</desc><title>location-fill</title><path d="M10.2 0.42c-4.5 0-8.2 3.7-8.2 8.3 0 6.2 7.5 11.3 7.8 11.6 0.2 0.1 0.3 0.1 0.4 0.1s0.3 0 0.4-0.1c0.3-0.2 7.8-5.3 7.8-11.6 0.1-4.6-3.6-8.3-8.2-8.3zM10.2 11.42c-1.7 0-3-1.3-3-3s1.3-3 3-3c1.7 0 3 1.3 3 3s-1.3 3-3 3z" fill="url(#ckam74m2j005c3b6nrl4p9mbh)"></path></svg>
