<svg xmlns="http://www.w3.org/2000/svg" fill="#ED5A6B" width="18" height="18" viewBox="0 0 20 20" aria-labelledby="icon-svg-title-Trending icon-svg-desc-Trending" role="img" class="rbbb40-0 ZGPg"><linearGradient id="ckambfnlm00913b6nyhmhi8ch" x1="0" x2="100%" y1="0" y2="0"><stop offset="0" stop-color="#ED5A6B"></stop><stop offset="100%" stop-color="#ED5A6B"></stop></linearGradient><title id="icon-svg-title-Trending">Trending icon</title><desc id="icon-svg-desc-Trending">It is an icon with title Trending</desc><title>Artboard 109</title><path d="M17.85,5.1a.77.77,0,0,0-.45-.45.88.88,0,0,0-.32-.07H13.54a.84.84,0,0,0-.83.84.83.83,0,0,0,.83.83h1.53l-4,4L9.13,8.37A.83.83,0,0,0,8,8.37L2.33,14a.83.83,0,0,0,0,1.18.79.79,0,0,0,.59.25.83.83,0,0,0,.59-.25l5-5,1.91,1.91a.85.85,0,0,0,1.18,0l4.62-4.62V9a.83.83,0,0,0,.83.83A.84.84,0,0,0,17.92,9V5.42A.88.88,0,0,0,17.85,5.1Z" fill="url(#ckambfnlm00913b6nyhmhi8ch)"></path></svg>
